inDegrees=yes
name=ik_S41_A06_T01
DataType=double
version=3
OpenSimVersion=4.3-2021-08-27-4bc7ad9
endheader
time	pelvis_tilt	pelvis_list	pelvis_rotation	pelvis_tx	pelvis_ty	pelvis_tz	hip_flexion_r	hip_adduction_r	hip_rotation_r	knee_angle_r	knee_angle_r_beta	ankle_angle_r	subtalar_angle_r	mtp_angle_r	hip_flexion_l	hip_adduction_l	hip_rotation_l	knee_angle_l	knee_angle_l_beta	ankle_angle_l	subtalar_angle_l	mtp_angle_l	lumbar_extension	lumbar_bending	lumbar_rotation	arm_flex_r	arm_add_r	arm_rot_r	elbow_flex_r	pro_sup_r	wrist_flex_r	wrist_dev_r	arm_flex_l	arm_add_l	arm_rot_l	elbow_flex_l	pro_sup_l	wrist_flex_l	wrist_dev_l
10.69999999999986	-9.287908927244084	-4.450279188581087	24.16565243978474	0	0.9399999999999999	0	32.09450895108	-9.508325999529154	-8.8608987017787	37.43208016979828	0.6533130448334581	0	0	0	32.09450895108	-9.508325999529154	-8.8608987017787	37.43208016979828	0.6533130448334581	0	0	0	-9.935100756469913	-0.009524790970766727	4.637885134655304	43.5956510912867	4.666778111220098	14.09209910739732	7.787858463456707	97.90846052471193	0	0	79.25313871293811	27.83569196064988	12.45187948894573	11.44421934127772	85.19787134512477	0	0
10.71999999999986	-9.297411095140189	-4.433215807022294	24.23650530831944	0	0.9399999999999999	0	32.09839961042058	-9.508824307921458	-8.861641797277883	37.43581980454957	0.6533783137726902	0	0	0	32.09839961042058	-9.508824307921458	-8.861641797277883	37.43581980454957	0.6533783137726902	0	0	0	-9.945306142108358	0.03196104727069834	4.530116316682132	43.73796536867083	4.640830263833785	13.9524713396086	7.650633685653276	98.08140635314689	0	0	79.65499944296946	27.29295504327544	12.24906820550913	12.18163517668211	84.44164826216701	0	0
10.73999999999986	-9.24627387682335	-4.446229169329221	24.32786415345917	0	0.9399999999999999	0	32.10433518847674	-9.509589983175843	-8.862780867598593	37.44148404766961	0.6534771734647682	0	0	0	32.10433518847674	-9.509589983175843	-8.862780867598593	37.44148404766961	0.6534771734647682	0	0	0	-9.91381028966355	0.02541470699338961	4.399398433232953	43.70728835309708	4.727206970049026	13.84857254604408	7.538721732128603	98.11831484364977	0	0	79.89265552252583	26.47001571233977	12.2213065936426	13.30288106389026	83.73335804169876	0	0
10.75999999999986	-9.209616421568075	-4.440145864750332	24.47464301385682	0	0.9399999999999999	0	32.10951107892357	-9.510257232586492	-8.863773903894725	37.44642223367	0.6535633610695509	0	0	0	32.10951107892357	-9.510257232586492	-8.863773903894725	37.44642223367	0.6535633610695509	0	0	0	-9.88807505058727	0.0459120938502779	4.255419049862518	43.68806519087229	4.739443541753971	13.72566002116952	7.477189980445088	98.15205864082834	0	0	80.45112657734299	25.4558666645571	11.70515757550301	14.43211073810109	83.37934449050597	0	0
10.77999999999986	-9.194545724049817	-4.431382374357949	24.43627780224438	0	0.9399999999999999	0	32.11817289114258	-9.511362656656029	-8.865425243196242	37.4547554628923	0.6537088033568035	0	0	0	32.11817289114258	-9.511362656656029	-8.865425243196242	37.4547554628923	0.6537088033568035	0	0	0	-9.867759249566143	0.03744707330905984	4.299241733268015	43.68945387915971	4.748499793872499	13.58435148932239	7.420878897125311	98.21725161253137	0	0	80.43626343382877	25.36292470478204	11.71527676496593	15.75682394044657	82.8201731338098	0	0
10.79999999999986	-9.167457231800011	-4.421033810182292	24.64155294766976	0	0.9399999999999999	0	32.12289204732368	-9.511969355729684	-8.866329412246401	37.45926030214461	0.6537874276340293	0	0	0	32.12289204732368	-9.511969355729684	-8.866329412246401	37.45926030214461	0.6537874276340293	0	0	0	-9.851514217211664	0.07449157881906458	4.115376638054763	43.67681742652315	4.746154032826395	13.43484392864661	7.383216667475839	98.18549564131581	0	0	81.27093662938536	23.99619313078876	10.99246734718434	16.99246105081868	82.59855346614208	0	0
10.81999999999986	-9.128187382282816	-4.402796187058403	24.67693876901851	0	0.9399999999999999	0	32.12779378520647	-9.512591414787876	-8.867260837513617	37.46399253781316	0.6538700207274258	0	0	0	32.12779378520647	-9.512591414787876	-8.867260837513617	37.46399253781316	0.6538700207274258	0	0	0	-9.80537829851855	0.06540669743555533	4.158575181132959	43.61996497458922	4.743677344725383	13.2344703640844	7.340768993285493	98.14458373287674	0	0	81.18474004090092	23.9924278111067	11.023581248583	17.82957115246122	82.58399235574075	0	0
10.83999999999986	-9.063336851356038	-4.387895846451628	25.23282308431917	0	0.9399999999999999	0	32.29917120950473	-9.527977991000714	-8.893653950069535	37.67373737690684	0.6575307587586764	0	0	0	32.29917120950473	-9.527977991000714	-8.893653950069535	37.67373737690684	0.6575307587586764	0	0	0	-9.772748793206658	0.1356553324057725	3.706618252627254	43.54301061844766	4.762339476990494	13.00624849105121	7.304773578298223	98.16985565615619	0	0	82.41379056196328	20.26549955800651	10.8431800254194	20.02578910173538	81.39200869453066	0	0
10.85999999999986	-9.005840249948912	-4.342746126377636	25.65342291996533	0	0.9399999999999999	0	32.42051776740083	-9.538470402482822	-8.911950338579874	37.82405368898937	0.6601542733239718	0	0	0	32.42051776740083	-9.538470402482822	-8.911950338579874	37.82405368898937	0.6601542733239718	0	0	0	-9.721716637203718	0.20333716408506	3.441632205495281	43.39129323496234	4.659263471984626	12.78083148460948	7.377131234455812	98.25707759233882	0	0	82.74729519458607	18.1774898010102	10.97670044464381	22.20380485705689	80.67453692360237	0	0
10.87999999999986	-8.952312817594533	-4.310171774447824	26.14155904424132	0	0.9399999999999999	0	32.53530758915211	-9.548445016125379	-8.929309139194693	37.96518797327282	0.6626175312721636	0	0	0	32.53530758915211	-9.548445016125379	-8.929309139194693	37.96518797327282	0.6626175312721636	0	0	0	-9.678543715380869	0.2539628779463284	3.209105454090543	43.30508459261488	4.533067018383785	12.59090135034514	7.379084342683943	98.21072038329868	0	0	82.95374529910856	16.07863916692336	11.10311698542659	24.54397352811327	79.97595531326803	0	0
10.89999999999986	-8.900842429968758	-4.255597580508297	26.67733536293282	0	0.9399999999999999	0	32.64737256667792	-9.558022352855469	-8.946102158147218	38.10337622352721	0.6650293712266726	0	0	0	32.64737256667792	-9.558022352855469	-8.946102158147218	38.10337622352721	0.6650293712266726	0	0	0	-9.626959628268846	0.3269653394197266	2.965659309217604	43.16751697636126	4.343005978217531	12.39029339320508	7.434785447072832	98.19244178561279	0	0	83.088101476654	13.84234423020138	11.10174510557341	27.07066320376652	79.4699508830538	0	0
